<svg xmlns="http://www.w3.org/2000/svg" width="1000" height="560" viewBox="0 0 1000 560" role="img" aria-labelledby="title desc">
  <title id="title">Global KTable replication</title>
  <desc id="desc">A Global KTable replicates partitioned reference data into complete local copies.</desc>
  <defs>
    <filter id="shadow" x="-20%" y="-20%" width="140%" height="150%">
      <feDropShadow dx="0" dy="4" stdDeviation="5" flood-color="#0f172a" flood-opacity="0.08"/>
    </filter>
    <marker id="arrow-purple" viewBox="0 0 10 10" refX="9" refY="5" markerWidth="9" markerHeight="9" orient="auto"><path d="M0 0 10 5 0 10Z" fill="#7c3aed"/></marker>
    <marker id="arrow-blue" viewBox="0 0 10 10" refX="9" refY="5" markerWidth="9" markerHeight="9" orient="auto"><path d="M0 0 10 5 0 10Z" fill="#2563eb"/></marker>
    <marker id="arrow-amber" viewBox="0 0 10 10" refX="9" refY="5" markerWidth="9" markerHeight="9" orient="auto"><path d="M0 0 10 5 0 10Z" fill="#c2410c"/></marker>
    <marker id="arrow-green" viewBox="0 0 10 10" refX="9" refY="5" markerWidth="9" markerHeight="9" orient="auto"><path d="M0 0 10 5 0 10Z" fill="#15803d"/></marker>
    <marker id="arrow-red" viewBox="0 0 10 10" refX="9" refY="5" markerWidth="9" markerHeight="9" orient="auto"><path d="M0 0 10 5 0 10Z" fill="#dc2626"/></marker>
    <marker id="arrow-gray" viewBox="0 0 10 10" refX="9" refY="5" markerWidth="9" markerHeight="9" orient="auto"><path d="M0 0 10 5 0 10Z" fill="#64748b"/></marker>
    <symbol id="icon-container" viewBox="0 0 24 24">
        <rect x="2" y="5" width="20" height="14" rx="2" fill="none" stroke="currentColor" stroke-width="2"/>
        <path d="M7 5v14M12 5v14M17 5v14" fill="none" stroke="currentColor" stroke-width="2"/>
      </symbol>
    <symbol id="icon-database" viewBox="0 0 24 24">
        <ellipse cx="12" cy="5" rx="8" ry="3" fill="none" stroke="currentColor" stroke-width="2"/>
        <path d="M4 5v7c0 1.66 3.58 3 8 3s8-1.34 8-3V5M4 12v7c0 1.66 3.58 3 8 3s8-1.34 8-3v-7" fill="none" stroke="currentColor" stroke-width="2"/>
      </symbol>
    <style>
      text { font-family: system-ui, -apple-system, BlinkMacSystemFont, "Segoe UI", sans-serif; fill: #172033; }
      symbol [stroke] { vector-effect: non-scaling-stroke; }
      .node rect { stroke-width: 2; }
      .node-boundary rect { stroke-width: 2; stroke-dasharray: 8 8; }
      .boundary-title { font-size: 16px; font-weight: 750; text-anchor: start; }
      .node-title { font-weight: 750; text-anchor: middle; }
      .node-title.icon-copy { text-anchor: start; }
      .node-subtitle { font-weight: 500; fill: #475569; text-anchor: middle; }
      .eyebrow { font-weight: 750; letter-spacing: 1px; fill: #475569; text-anchor: middle; }
      .mention-icon { font-size: 27px; font-weight: 750; text-anchor: middle; }
      .standalone-mention { font-size: 52px; font-weight: 750; text-anchor: middle; }
      .icon-node-title { font-size: 16px; font-weight: 750; text-anchor: middle; }
      .edge { fill: none; stroke-width: 2.5; stroke-linecap: round; stroke-linejoin: round; }
      .edge-label rect { stroke-width: 2; }
      .edge-label text { font-size: 14px; font-weight: 750; text-anchor: middle; dominant-baseline: central; }
      .divider { stroke: #cbd5e1; stroke-width: 2; stroke-dasharray: 6 8; stroke-linecap: round; }
      .center-annotation { fill: #f1f5f9; stroke: none; }
      .center-title { font-weight: 800; letter-spacing: 0.08em; fill: #334155; text-anchor: middle; }
      .center-detail { font-weight: 600; fill: #475569; text-anchor: middle; }
    </style>
  </defs>
  <rect width="1000" height="560" fill="#ffffff"/>

  <path class="edge" d="M260 115H325V280H390" stroke="#64748b" marker-end="url(#arrow-gray)"/>
  <path class="edge" d="M260 445H325V280H390" stroke="#64748b" marker-end="url(#arrow-gray)"/>
  <path class="edge" d="M610 280H675V115H740" stroke="#64748b" marker-end="url(#arrow-gray)"/>
  <path class="edge" d="M610 280H675V445H740" stroke="#64748b" marker-end="url(#arrow-gray)"/>

  <g class="node node-blue" transform="translate(40 60)" filter="url(#shadow)">
    <rect width="220" height="110" rx="18" fill="#eff6ff" stroke="#2563eb"/>
    <use href="#icon-database" x="16" y="25" width="34" height="34" color="#2563eb"/>
    <text class="node-title icon-copy" x="62" y="47.76" font-size="16">Kafka node A</text>
    <text class="node-subtitle" x="110" y="80" font-size="16">partitioned data</text>
  </g>
  <g class="node node-blue" transform="translate(40 390)" filter="url(#shadow)">
    <rect width="220" height="110" rx="18" fill="#eff6ff" stroke="#2563eb"/>
    <use href="#icon-database" x="16" y="25" width="34" height="34" color="#2563eb"/>
    <text class="node-title icon-copy" x="62" y="47.76" font-size="16">Kafka node B</text>
    <text class="node-subtitle" x="110" y="80" font-size="16">partitioned data</text>
  </g>
  <g class="node node-purple" transform="translate(390 225)" filter="url(#shadow)">
    <rect width="220" height="110" rx="18" fill="#f5f3ff" stroke="#7c3aed"/>
    <use href="#icon-database" x="16" y="25" width="34" height="34" color="#7c3aed"/>
    <text class="node-title icon-copy" x="62" y="47.76" font-size="16">Global KTable</text>
    <text class="node-subtitle" x="110" y="80" font-size="16">all partitions together</text>
  </g>
  <g class="node node-green" transform="translate(740 60)" filter="url(#shadow)">
    <rect width="220" height="110" rx="18" fill="#ecfdf5" stroke="#15803d"/>
    <use href="#icon-container" x="16" y="25" width="34" height="34" color="#15803d"/>
    <text class="node-title icon-copy" x="62" y="47.76" font-size="16">App instance A</text>
    <text class="node-subtitle" x="110" y="80" font-size="16">complete local copy</text>
  </g>
  <g class="node node-green" transform="translate(740 390)" filter="url(#shadow)">
    <rect width="220" height="110" rx="18" fill="#ecfdf5" stroke="#15803d"/>
    <use href="#icon-container" x="16" y="25" width="34" height="34" color="#15803d"/>
    <text class="node-title icon-copy" x="62" y="47.76" font-size="16">App instance B</text>
    <text class="node-subtitle" x="110" y="80" font-size="16">complete local copy</text>
  </g>
</svg>
