<svg width="642" height="165" viewBox="0 0 642 165" fill="none" xmlns="http://www.w3.org/2000/svg">
<rect width="642" height="165" fill="white"/>
<g clip-path="url(#clip0_314_1573)">
<path d="M296.244 65.2019C289.64 61.1368 282.148 59.0964 273.769 59.0964C267.726 59.0964 262.166 60.2334 257.119 62.523C254.503 63.7067 252.135 65.1396 250.001 66.8217L249.752 18.601C249.752 17.1526 248.569 16 247.136 16H224.225C222.776 16 221.608 17.1681 221.608 18.6166V148.155C221.608 149.666 222.823 150.881 224.334 150.881H247.011C248.522 150.881 249.737 149.666 249.737 148.155V144.199C251.87 146.021 254.285 147.61 256.948 148.95C262.01 151.473 267.617 152.75 273.785 152.75C282.18 152.75 289.702 150.678 296.353 146.551C303.019 142.424 308.221 136.863 311.99 129.901C315.76 122.939 317.629 114.949 317.629 105.931C317.629 96.9129 315.713 88.9073 311.897 81.8829C308.065 74.8585 302.863 69.2982 296.26 65.2331L296.244 65.2019ZM286.058 116.834C284.267 120.042 281.868 122.534 278.847 124.325C275.825 126.116 272.398 127.004 268.583 127.004C264.767 127.004 261.153 126.147 258.132 124.419C255.11 122.69 252.727 120.198 251.014 116.927C249.285 113.656 248.428 109.934 248.428 105.729C248.428 101.788 249.254 98.2056 250.92 94.9972C252.587 91.7887 254.954 89.2967 258.038 87.5055C261.122 85.7144 264.642 84.8266 268.583 84.8266C272.523 84.8266 275.825 85.7299 278.847 87.5055C281.868 89.2967 284.267 91.7887 286.058 94.9972C287.849 98.2056 288.737 101.85 288.737 105.915C288.737 109.98 287.833 113.625 286.058 116.834Z" fill="#FF5569"/>
<path d="M390.053 61.0432C386.783 59.7504 382.998 59.0963 378.668 59.0963C368.918 59.0963 361.239 61.9933 355.632 67.7872C355.601 67.8184 355.57 67.8495 355.539 67.8807V63.6598C355.539 62.149 354.324 60.9341 352.813 60.9341H329.778C328.267 60.9341 327.052 62.149 327.052 63.6598V148.139C327.052 149.65 328.267 150.865 329.778 150.865H352.813C354.324 150.865 355.539 149.65 355.539 148.139V101.648C355.539 95.8536 356.925 91.5082 359.698 88.5956C362.47 85.6986 366.27 84.2501 371.083 84.2501C373.419 84.2501 375.522 84.6239 377.375 85.356C378.247 85.6986 379.026 86.1036 379.743 86.5553C381.035 87.3963 382.749 87.1316 383.699 85.9323L397.14 68.7996C398.043 67.647 397.857 65.9805 396.735 65.0304C394.742 63.3327 392.514 61.9933 390.053 61.0276V61.0432Z" fill="#FF5569"/>
<path d="M483.847 60.9495H460.78C459.285 60.9495 458.054 62.1644 458.054 63.6752V112.581C458.054 117.269 456.855 120.976 454.441 123.686C452.042 126.396 448.74 127.751 444.535 127.751C441.7 127.751 439.224 127.128 437.137 125.898C435.034 124.667 433.43 122.907 432.324 120.618C431.218 118.344 430.658 115.649 430.658 112.566V63.6596C430.658 62.1644 429.443 60.934 427.932 60.934H404.881C403.386 60.934 402.155 62.1488 402.155 63.6596V112.939C402.155 120.711 403.946 127.596 407.529 133.576C411.111 139.557 416.126 144.277 422.605 147.734C429.084 151.192 436.389 152.921 444.535 152.921C452.681 152.921 460.266 151.223 466.558 147.828C472.851 144.432 477.757 139.744 481.277 133.763C484.797 127.783 486.557 120.836 486.557 112.939V63.6596C486.557 62.1644 485.342 60.934 483.831 60.934L483.847 60.9495Z" fill="#FF5569"/>
<path d="M498.393 60.9508C496.883 60.9508 495.668 62.1656 495.668 63.6764V148.172C495.668 149.667 496.883 150.882 498.378 150.882H521.46C522.955 150.882 524.17 149.667 524.17 148.172V63.6764C524.17 62.1656 522.955 60.9508 521.445 60.9508H498.393Z" fill="#FF5569"/>
<path d="M621.126 76.2134C618.166 70.9645 614.086 66.806 608.915 63.7221C603.728 60.6382 597.872 59.0963 591.33 59.0963C584.415 59.0963 578.216 60.5448 572.734 63.4417C570.242 64.7656 567.999 66.3387 565.974 68.161V63.6754C565.974 62.1646 564.744 60.9341 563.233 60.9341H540.213C538.702 60.9341 537.472 62.1646 537.472 63.6754V148.139C537.472 149.65 538.687 150.865 540.197 150.865H563.248C564.759 150.865 565.974 149.65 565.974 148.139V99.6073C565.974 96.5234 566.644 93.8133 568.014 91.4614C569.369 89.1252 571.223 87.3029 573.559 86.0101C575.895 84.7174 578.559 84.0632 581.518 84.0632C585.957 84.0632 589.664 85.5118 592.623 88.4087C595.582 91.3057 597.062 95.0437 597.062 99.6073V148.155C597.062 149.65 598.277 150.865 599.772 150.865H622.854C624.35 150.865 625.565 149.65 625.565 148.155V93.3149C625.565 87.1471 624.085 81.4466 621.126 76.1978V76.2134Z" fill="#FF5569"/>
<path d="M526.818 16.3898H491.338C489.049 16.3898 487.818 19.0687 489.298 20.8131L507.084 41.5592C508.128 42.7741 510.013 42.7741 511.072 41.5592L528.859 20.8131C530.354 19.0687 529.108 16.3898 526.818 16.3898Z" fill="#FF5569"/>
<path d="M171.908 37.0576C171.534 36.0297 171.799 34.8771 172.609 34.145L187.078 20.7037C188.885 19.0216 187.701 16 185.24 16H18.7112C16.2504 16 15.0666 19.0216 16.8734 20.7037L31.3271 34.1295C32.137 34.8771 32.4017 36.0297 32.0124 37.0576L16.2659 69.7499C15.752 70.809 16.0012 72.0706 16.8578 72.8649L100.107 150.211C101.103 151.13 102.63 151.13 103.627 150.211L187 72.7091C187.904 71.8681 188.168 70.513 187.623 69.4072L171.924 37.0732L171.908 37.0576ZM67.0252 49.1439L59.004 39.7988C57.5088 38.0544 58.7548 35.3755 61.0444 35.3755H76.9933C79.2828 35.3755 80.5133 38.0544 79.0336 39.7988L71.0124 49.1439C69.9689 50.3588 68.0843 50.3588 67.0252 49.1439ZM131.942 99.7632H108.658C106.228 99.7632 105.06 96.7883 106.835 95.1373L113.797 88.6737H113.766L115.106 87.4277C116.897 85.7611 115.713 82.7707 113.283 82.7707H90.4035C87.9582 82.7707 86.79 85.7611 88.5812 87.4277L89.9362 88.6893H89.905L96.836 95.1062C98.6271 96.7728 97.459 99.7788 94.9981 99.7788H71.7601C69.7041 99.7788 68.3802 97.5827 69.3615 95.7604L99.4526 39.83C100.48 37.9143 103.222 37.9143 104.25 39.83L134.356 95.7604C135.338 97.5827 134.014 99.7788 131.958 99.7788L131.942 99.7632ZM144.683 39.7988L136.662 49.1439C135.618 50.3588 133.733 50.3588 132.674 49.1439L124.653 39.7988C123.158 38.0544 124.404 35.3755 126.693 35.3755H142.642C144.932 35.3755 146.162 38.0544 144.683 39.7988Z" fill="#FF5569"/>
</g>
<defs>
<clipPath id="clip0_314_1573">
<rect width="610" height="137" fill="white" transform="translate(16 16)"/>
</clipPath>
</defs>
</svg>
