<?xml version="1.0" encoding="utf-8"?>
<!-- Generator: Adobe Illustrator 25.4.1, SVG Export Plug-In . SVG Version: 6.00 Build 0)  -->
<svg version="1.0" id="katman_1" xmlns="http://www.w3.org/2000/svg" xmlns:xlink="http://www.w3.org/1999/xlink" x="0px" y="0px"
	 viewBox="0 0 150.6 109.7" style="enable-background:new 0 0 150.6 109.7;" xml:space="preserve">
<style type="text/css">
	.st0{fill:#4386FA;}
	.st1{opacity:0.1;enable-background:new    ;}
	.st2{fill:#FFFFFF;}
	.st3{fill:#767677;}
</style>
<path class="st0" d="M29.9,72.2l-9.2-16c-0.5-0.9-0.5-1.9,0-2.8l9.2-16c0.5-0.9,1.4-1.4,2.4-1.4h18.5c1,0,1.9,0.5,2.4,1.4l9.2,16
	c0.5,0.9,0.5,1.9,0,2.8l-9.3,16c-0.5,0.9-1.4,1.4-2.4,1.4H32.3C31.3,73.6,30.4,73.1,29.9,72.2L29.9,72.2z"/>
<path class="st1" d="M47.3,49.7c0,0,2.6,6.2-0.9,9.7c-3.5,3.5-9.9,1.3-9.9,1.3l13,13h1.3c1,0,1.9-0.5,2.4-1.4l6.1-10.6L47.3,49.7z"
	/>
<path class="st2" d="M50.3,62.3l-2.8-2.8c0,0-0.1-0.1-0.1-0.1c2.6-3.4,2-8.2-1.4-10.8c-3.1-2.4-7.4-2.1-10.2,0.7
	c-2.9,2.9-3,7.5-0.3,10.6c2.7,3,7.3,3.5,10.5,0.9c0,0,0,0.1,0.1,0.1l2.8,2.8c0.1,0.1,0.2,0.1,0.3,0.1c0.1,0,0.2,0,0.3-0.1l0.8-0.8
	c0.1-0.1,0.1-0.2,0.1-0.3C50.5,62.5,50.4,62.4,50.3,62.3L50.3,62.3z M41.3,60.4c-2.3,0-4.5-1.4-5.4-3.6c-0.9-2.2-0.4-4.7,1.3-6.3
	c2.3-2.3,5.9-2.3,8.2,0c1.1,1.1,1.7,2.6,1.7,4.1C47.1,57.8,44.5,60.4,41.3,60.4L41.3,60.4z M37.6,54.3v2.4c0.4,0.7,0.9,1.2,1.6,1.6
	v-4L37.6,54.3z M40.5,52.3v6.5c0.5,0.1,1,0.1,1.6,0v-6.5L40.5,52.3z M45,56.7v-1.4h-1.6v3C44.1,57.9,44.6,57.4,45,56.7L45,56.7z"/>
<path class="st3" d="M84.9,44.4h-7v2.1h5c-0.2,2.9-2.7,4.2-5,4.2c-1.5,0-2.9-0.6-3.9-1.6c-1-1-1.6-2.4-1.6-3.9v-0.1
	c0-1.5,0.5-2.9,1.6-3.9c1-1,2.4-1.6,3.9-1.6c1.4,0,2.8,0.5,3.8,1.5l1.5-1.5c-1.4-1.4-3.3-2.1-5.3-2.1c-4.2-0.1-7.7,3.3-7.8,7.5
	c0,1.4,0.3,2.9,1.1,4.1c1.4,2.4,4.1,3.8,6.8,3.7c4.1,0,7.1-2.8,7.1-7C85,45.3,85,44.9,84.9,44.4L84.9,44.4z M90.7,42.9
	c-2.7-0.1-4.9,2.1-5,4.8c0,0,0,0,0,0v0.1c0,2.7,2.2,5,4.9,5c2.7,0,5-2.2,5-4.9C95.6,44.6,93,42.9,90.7,42.9L90.7,42.9z M90.7,44.8
	c1.4,0,2.8,1.1,2.8,3c0,1.9-1.3,3-2.8,3c-1.6,0-2.8-1.2-2.8-3S89.1,44.8,90.7,44.8L90.7,44.8z M101.4,42.9c-2.7,0-4.9,2.1-4.9,4.8
	c0,0,0,0,0,0v0.1c0,2.7,2.2,5,4.9,5c2.7,0,5-2.2,5-4.9C106.3,44.6,103.8,42.9,101.4,42.9L101.4,42.9z M101.4,44.8
	c1.4,0,2.8,1.1,2.8,3c0,1.9-1.3,3-2.8,3c-1.6,0-2.8-1.2-2.8-3S99.8,44.8,101.4,44.8L101.4,44.8z M111.9,42.9c-2.6,0-4.7,2.3-4.7,4.9
	c0,2.6,2,4.8,4.7,4.9c1,0.1,2-0.4,2.7-1.2v1c0,1.7-1,2.7-2.6,2.7c-1.1,0-2.1-0.7-2.5-1.8l-1.9,0.8c0.7,1.4,2,2.9,4.4,2.9
	c2.6,0,4.6-1.7,4.6-5.1v-8.8h-2.1V44C113.9,43.3,112.9,42.9,111.9,42.9L111.9,42.9z M112.1,44.8c1.3,0,2.6,1.1,2.6,3
	c0,1.9-1.3,3-2.7,3c-1.4,0-2.7-1.1-2.7-3C109.4,45.9,110.7,44.8,112.1,44.8L112.1,44.8z M125.8,42.9c-2.5,0-4.6,2-4.6,4.9
	c-0.1,2.6,2,4.8,4.6,4.9c0.1,0,0.2,0,0.2,0c1.7,0,3.2-0.8,4.1-2.2l-1.7-1.1c-0.5,0.8-1.4,1.4-2.4,1.4c-1,0-2-0.6-2.4-1.5l6.6-2.7
	l-0.3-0.8C129.3,44,127.7,42.9,125.8,42.9L125.8,42.9z M125.9,44.8c0.8,0,1.5,0.4,1.8,1.1l-4.4,1.8
	C123.1,46.2,124.5,44.8,125.9,44.8L125.9,44.8z M118.1,52.4h2.2V37.9h-2.2L118.1,52.4z M70.4,69.1v-9.5h3.4c0.7,0,1.4,0.3,1.9,0.8
	c0.5,0.5,0.8,1.1,0.8,1.8c0,0.9-0.5,1.7-1.3,2v0.1c0.5,0.1,0.9,0.4,1.2,0.8c0.3,0.4,0.4,0.9,0.4,1.3c0,0.7-0.3,1.4-0.8,1.9
	c-0.6,0.5-1.3,0.8-2,0.8H70.4L70.4,69.1z M71.6,60.8v2.9h2.2c0.4,0,0.8-0.1,1.1-0.4c0.6-0.5,0.6-1.4,0.1-2l0,0
	c-0.3-0.3-0.7-0.4-1-0.4L71.6,60.8L71.6,60.8z M71.6,64.9V68h2.5c0.9,0,1.6-0.7,1.6-1.6c0-0.4-0.2-0.8-0.5-1.1
	c-0.3-0.3-0.7-0.5-1.2-0.5L71.6,64.9L71.6,64.9z M79.7,60.4c0,0.5-0.4,0.9-0.9,0.9c-0.3,0-0.7-0.2-0.8-0.5c-0.2-0.4,0-0.9,0.5-1.1
	c0.3-0.1,0.7-0.1,0.9,0.2C79.6,59.9,79.7,60.2,79.7,60.4L79.7,60.4z M79.4,62.6v6.5h-1.2v-6.5H79.4z M83.8,72.2c-0.3,0-0.7,0-1-0.1
	c-0.3-0.1-0.6-0.2-0.9-0.4c-0.3-0.2-0.5-0.4-0.7-0.6c-0.2-0.2-0.3-0.5-0.4-0.8l1.2-0.5c0.1,0.4,0.4,0.7,0.7,0.9
	c0.3,0.2,0.7,0.3,1.1,0.3c0.6,0,1.1-0.2,1.6-0.6c0.4-0.5,0.6-1,0.6-1.6v-0.6h-0.1c-0.2,0.3-0.6,0.6-0.9,0.8
	c-0.4,0.2-0.8,0.3-1.3,0.3c-0.8,0-1.6-0.4-2.2-1c-0.6-0.7-0.9-1.6-0.9-2.5c0-0.9,0.3-1.8,0.9-2.5c0.5-0.6,1.3-1,2.2-1
	c0.4,0,0.9,0.1,1.3,0.3c0.4,0.2,0.7,0.5,0.9,0.8h0.1v-0.9h1.2v6.2c0.1,0.9-0.3,1.8-0.9,2.5C85.6,71.9,84.7,72.2,83.8,72.2L83.8,72.2
	z M83.9,68.2c0.6,0,1.1-0.2,1.5-0.7c0.8-1,0.8-2.4,0-3.4c-0.4-0.4-0.9-0.7-1.5-0.7c-0.6,0-1.1,0.2-1.5,0.7c-0.4,0.5-0.6,1.1-0.6,1.7
	c0,0.6,0.2,1.2,0.6,1.7C82.7,68,83.3,68.3,83.9,68.2L83.9,68.2z M99.8,69.1l-1,0.6l-0.7-1c-0.7,0.4-1.5,0.5-2.3,0.5
	c-1.3,0-2.6-0.5-3.5-1.4c-1.9-2-1.9-5.1,0-7.1c1.9-1.9,5-1.9,6.9,0c0,0,0,0,0,0c0.9,0.9,1.4,2.2,1.4,3.5c0,0.7-0.1,1.4-0.4,2.1
	c-0.3,0.6-0.7,1.2-1.2,1.7L99.8,69.1z M95.9,68.2c0.6,0,1.1-0.1,1.6-0.4l-1.1-1.7l1-0.7l1.1,1.7c0.7-0.7,1.1-1.7,1.1-2.8
	c0-1-0.3-2-1-2.7c-0.7-0.7-1.6-1.1-2.6-1.1c-1,0-1.9,0.4-2.6,1.1c-1.4,1.5-1.4,3.9,0,5.4C94,67.8,94.9,68.2,95.9,68.2L95.9,68.2z
	 M107.7,69.1h-1.2v-0.9h-0.1c-0.2,0.3-0.5,0.6-0.9,0.8c-0.4,0.2-0.8,0.3-1.2,0.3c-0.7,0-1.4-0.2-1.8-0.7c-0.5-0.5-0.7-1.2-0.6-1.9
	v-4.1h1.2v4c0,1.1,0.6,1.6,1.6,1.6c0.5,0,0.9-0.2,1.2-0.6c0.3-0.4,0.5-0.9,0.5-1.4v-3.6h1.2L107.7,69.1L107.7,69.1z M112.1,69.3
	c-0.9,0-1.8-0.3-2.4-1c-0.6-0.7-1-1.6-0.9-2.5c0-0.9,0.3-1.8,0.9-2.5c1.2-1.3,3.3-1.3,4.6-0.1c0,0,0,0,0,0c0.6,0.7,0.9,1.7,0.9,2.6
	v0.1H110c0,0.6,0.2,1.1,0.6,1.5c0.8,0.8,2.1,0.8,2.9,0c0.2-0.2,0.3-0.3,0.4-0.5l1.1,0.5c-0.3,0.5-0.7,1-1.2,1.3
	C113.3,69.2,112.7,69.4,112.1,69.3L112.1,69.3z M110.1,65.1h3.7c0-0.4-0.2-0.8-0.6-1.1c-0.4-0.3-0.8-0.5-1.3-0.4
	c-0.4,0-0.9,0.1-1.2,0.4C110.4,64.2,110.2,64.7,110.1,65.1L110.1,65.1z M117.5,69.1h-1.2v-6.5h1.2v1.1h0.1c0.1-0.4,0.4-0.7,0.8-0.9
	c0.3-0.2,0.7-0.4,1.1-0.4c0.3,0,0.6,0,0.9,0.2l-0.4,1.2c-0.2-0.1-0.5-0.1-0.7-0.1c-0.5,0-0.9,0.2-1.2,0.6c-0.3,0.4-0.5,0.8-0.5,1.3
	L117.5,69.1L117.5,69.1z M127,62.6L123,72h-1.3l1.5-3.3l-2.7-6.1h1.3l1.9,4.7h0l1.9-4.7L127,62.6L127,62.6z"/>
</svg>
