<svg width="233" height="68" viewBox="0 0 233 68" fill="none" xmlns="http://www.w3.org/2000/svg">
<rect x="0.901123" width="232" height="68" rx="10" fill="#FBFBFB"/>
<path d="M76.5176 15.4844H68.3245V52.0398H76.5176V44.759L79.5817 41.6282L86.4414 52.0398H95.7628L85.1438 35.969L95.3646 25.5348H85.2477L76.5176 34.6997V15.4844Z" fill="#26282D"/>
<path d="M161.375 17.419H153.278V25.5348H148.585V32.0804H153.278V46.0303C153.278 47.9809 153.784 49.4988 154.85 50.5263C155.914 51.5529 157.485 52.0398 159.505 52.0398H166.597V45.6358H161.375V32.0804H166.597V25.5348H161.375V17.419Z" fill="#26282D"/>
<path fill-rule="evenodd" clip-rule="evenodd" d="M108.268 25.063C104.269 25.063 101.032 26.2737 98.591 28.7155L98.5889 28.7177C96.1783 31.178 94.9898 34.5473 94.9898 38.7873C94.9898 42.9802 96.1622 46.3323 98.5386 48.8076C100.919 51.2869 104.208 52.5117 108.364 52.5117C111.75 52.5117 114.607 51.7291 116.915 50.1453L116.916 50.1441L116.918 50.1429C119.225 48.5115 120.665 46.3552 121.226 43.6844L121.302 43.3237H113.268L113.199 43.5304C112.92 44.3664 112.354 45.0428 111.48 45.5605C110.622 46.0618 109.572 46.32 108.316 46.32C106.787 46.32 105.582 45.9055 104.671 45.1005C103.762 44.2819 103.303 43.2171 103.303 41.878V40.7861H120.814L120.845 40.5211C120.975 39.4405 121.04 38.3828 121.04 37.3482C121.04 33.5575 119.871 30.5543 117.504 28.3784C115.19 26.1597 112.1 25.063 108.268 25.063ZM104.617 32.3848C105.496 31.6405 106.67 31.2547 108.171 31.2547C109.624 31.2547 110.766 31.6321 111.63 32.3615L111.632 32.3633L111.634 32.3651C112.507 33.076 112.943 34.0042 112.943 35.1777V35.3494H103.303V35.272C103.303 34.0644 103.742 33.1123 104.615 32.3867L104.617 32.3848Z" fill="#26282D"/>
<path fill-rule="evenodd" clip-rule="evenodd" d="M135.174 25.063C131.745 25.063 128.993 25.8116 126.95 27.3424L126.949 27.3431C124.91 28.8833 123.893 31.0193 123.893 33.7149C123.893 35.8196 124.566 37.5446 125.928 38.8596C127.283 40.1673 129.292 41.0424 131.918 41.5126L131.921 41.5131L136.62 42.2691L136.624 42.2697C137.413 42.3758 138.001 42.5845 138.412 42.876L138.414 42.8774L138.416 42.8788C138.791 43.1366 139.05 43.6198 139.127 44.4161C139.124 45.1308 138.834 45.6701 138.249 46.0664L138.246 46.0684C137.661 46.4742 136.787 46.6975 135.583 46.6975C134.261 46.6975 133.269 46.4153 132.57 45.888C131.903 45.3721 131.557 44.6325 131.557 43.6238V43.3237H123.484V43.6238C123.484 46.3267 124.57 48.4997 126.734 50.1146L126.734 50.1153C128.906 51.7244 131.851 52.5117 135.535 52.5117C139.138 52.5117 142.018 51.7482 144.141 50.1868C146.293 48.6166 147.369 46.433 147.369 43.671C147.369 41.4958 146.734 39.7371 145.435 38.4304C144.141 37.1294 142.223 36.3106 139.722 35.9428L139.719 35.9425L135.171 35.2112L135.168 35.2107C134.603 35.1338 134.217 35.0798 134.007 35.0484C133.841 35.0062 133.622 34.9282 133.349 34.809C133.092 34.6974 132.838 34.5345 132.585 34.3159C132.225 34.0019 132.038 33.5842 132.038 33.0307C132.038 32.3299 132.297 31.8189 132.803 31.4565C133.325 31.0831 134.087 30.8772 135.126 30.8772C136.318 30.8772 137.165 31.1171 137.714 31.5486C138.252 31.9712 138.551 32.6147 138.574 33.5334L138.581 33.8263H146.632L146.622 33.5167C146.539 30.9288 145.471 28.8613 143.421 27.3419C141.378 25.8113 138.617 25.063 135.174 25.063ZM143.958 49.9467L144.141 50.1868L144.141 50.1874L143.958 49.9467ZM132.382 46.1246L132.569 45.887L132.57 45.888L132.571 45.8888L132.382 46.1246ZM139.433 44.4024L139.129 44.4301L139.127 44.4161L139.127 44.4024H139.433Z" fill="#26282D"/>
<path fill-rule="evenodd" clip-rule="evenodd" d="M199.96 25.063C196.386 25.063 193.491 25.8514 191.305 27.4585C189.124 29.0584 187.932 31.3451 187.718 34.2833L187.694 34.6048H195.696L195.717 34.3271C195.792 33.3391 196.155 32.6117 196.785 32.107L196.785 32.1065C197.434 31.5832 198.367 31.3019 199.623 31.3019C200.887 31.3019 201.778 31.5985 202.353 32.1387C202.927 32.6765 203.24 33.5051 203.24 34.6822V35.892H196.567C193.548 35.892 191.12 36.6284 189.317 38.1342C187.522 39.6304 186.634 41.6851 186.634 44.2608C186.634 46.7498 187.42 48.7673 189.013 50.2802L189.016 50.2824C190.625 51.7776 192.768 52.5117 195.411 52.5117C197.427 52.5117 199.211 52.1098 200.755 51.2962L200.757 51.2951C202.162 50.5399 203.159 49.5447 203.725 48.3057L203.797 48.7443L203.798 48.7484C204 49.8729 204.481 50.7321 205.271 51.2773L205.273 51.2786L205.275 51.2799C206.057 51.803 207.24 52.0398 208.768 52.0398H214.61V46.32H211.361V34.8238C211.361 32.124 210.443 29.8163 208.607 27.9184C206.791 25.9917 203.883 25.063 199.96 25.063ZM194.851 43.1284C194.851 42.3709 195.11 41.8447 195.598 41.495C196.104 41.1326 196.9 40.9277 198.035 40.9277H203.24V41.5477C203.24 43.0544 202.774 44.2211 201.866 45.0824C200.957 45.9286 199.709 46.3672 198.083 46.3672C196.932 46.3672 196.125 46.1566 195.612 45.7833C195.116 45.4225 194.851 44.8784 194.851 44.0957V43.1284Z" fill="#26282D"/>
<path d="M177.217 25.5348C174.438 25.5348 172.503 26.2508 171.586 27.8082C171.188 28.474 170.911 29.1308 170.758 29.7782L170.757 29.7811L170.757 29.7839C170.623 30.4086 170.558 31.1701 170.558 32.0634V52.0398H178.655V32.0804H186.5V25.5348H177.217Z" fill="#26282D"/>
<path d="M219.974 52.0637C219.102 52.0637 218.379 51.7923 217.805 51.2495C217.254 50.6831 216.979 49.9868 216.979 49.1608C216.979 48.3347 217.254 47.6503 217.805 47.1075C218.379 46.541 219.102 46.2578 219.974 46.2578C220.824 46.2578 221.524 46.541 222.075 47.1075C222.626 47.6503 222.901 48.3347 222.901 49.1608C222.901 49.9868 222.626 50.6831 222.075 51.2495C221.524 51.7923 220.824 52.0637 219.974 52.0637Z" fill="#F62E77"/>
<path d="M10.9011 15.3676C10.9011 12.4032 13.3525 10 16.3765 10H54.4038C57.4277 10 59.8791 12.4032 59.8791 15.3676V52.6467C59.8791 55.6111 57.4277 58.0143 54.4038 58.0143H16.3765C13.3525 58.0143 10.9011 55.6111 10.9011 52.6467V15.3676Z" fill="#2C0059"/>
<path d="M34.1873 30.1515C34.8515 29.5004 35.9285 29.5004 36.5927 30.1515L39.3231 32.8282C39.9873 33.4793 39.9873 34.5351 39.3231 35.1862L36.5927 37.8629C35.9285 38.5141 34.8515 38.5141 34.1873 37.8629L31.4569 35.1862C30.7927 34.5351 30.7927 33.4793 31.4569 32.8282L34.1873 30.1515Z" fill="#A950FF"/>
<path d="M46.763 30.1302C47.4154 29.4907 48.473 29.4907 49.1254 30.1302L51.8988 32.849C52.5512 33.4885 52.5512 34.5254 51.8988 35.1649L49.1254 37.8837C48.473 38.5233 47.4154 38.5233 46.763 37.8837L43.9896 35.1649C43.3373 34.5254 43.3373 33.4885 43.9896 32.849L46.763 30.1302Z" fill="#A950FF"/>
<path d="M34.2088 17.8234C34.8612 17.1839 35.9188 17.1839 36.5712 17.8234L39.3446 20.5422C39.997 21.1817 39.997 22.2186 39.3446 22.8581L36.5712 25.5769C35.9188 26.2165 34.8612 26.2165 34.2088 25.5769L31.4354 22.8581C30.7831 22.2186 30.7831 21.1817 31.4354 20.5422L34.2088 17.8234Z" fill="#E9C1FF"/>
<path d="M33.0466 26.6747C33.7109 27.3259 33.7109 28.3816 33.0466 29.0328L30.3162 31.7094C29.652 32.3606 28.5751 32.3606 27.9108 31.7094L25.1805 29.0328C24.5162 28.3816 24.5162 27.3259 25.1805 26.6747L27.9108 23.9981C28.5751 23.3469 29.652 23.3469 30.3162 23.9981L33.0466 26.6747Z" fill="#CD88FF"/>
<path d="M26.7908 32.849C27.4431 33.4885 27.4431 34.5254 26.7908 35.1649L24.0174 37.8837C23.365 38.5233 22.3074 38.5233 21.655 37.8837L18.8816 35.1649C18.2292 34.5254 18.2292 33.4885 18.8816 32.849L21.655 30.1302C22.3074 29.4907 23.365 29.4907 24.0174 30.1302L26.7908 32.849Z" fill="#A950FF"/>
<path d="M45.6003 26.6747C46.2645 27.3259 46.2645 28.3816 45.6003 29.0328L42.8699 31.7094C42.2057 32.3606 41.1288 32.3606 40.4645 31.7094L37.7342 29.0328C37.0699 28.3816 37.0699 27.3259 37.7342 26.6747L40.4645 23.9981C41.1288 23.3469 42.2057 23.3469 42.8699 23.9981L45.6003 26.6747Z" fill="#CD88FF"/>
<path d="M38.0771 44.2537C39.5611 45.7085 39.5611 48.0671 38.0771 49.5218C36.5932 50.9766 34.1872 50.9766 32.7033 49.5218C31.2193 48.0671 31.2193 45.7085 32.7033 44.2537C34.1872 42.799 36.5932 42.799 38.0771 44.2537Z" fill="#F62E76"/>
</svg>
