<svg width="313" height="88" viewBox="0 0 313 88" fill="none" xmlns="http://www.w3.org/2000/svg">
<title>Terraform Logo</title>
<path d="M98.4609 30.4602H87.2109V23.7402H117.331V30.4602H106.081V64.0602H98.4609V30.4602Z" fill="white"/>
<path d="M125.291 58.5907C128.343 58.5763 131.377 58.1079 134.291 57.2007L135.441 62.7607C131.959 64.0177 128.283 64.654 124.581 64.6407C115.331 64.6407 112.121 60.3407 112.121 53.2607V45.4607C112.121 39.2307 114.901 33.9707 124.341 33.9707C133.781 33.9707 135.901 39.4707 135.901 45.8207V52.1207H119.581V53.6307C119.581 57.2007 120.811 58.5907 125.291 58.5907ZM119.581 46.1907H128.961V44.7307C128.961 41.9507 128.111 40.0207 124.481 40.0207C120.851 40.0207 119.581 41.9507 119.581 44.7307V46.1907Z" fill="white"/>
<path d="M155.661 40.7407C152.948 41.9667 150.337 43.4045 147.851 45.0407V64.0607H140.471V34.5707H146.701L147.191 37.8407C149.588 36.2131 152.19 34.9117 154.931 33.9707L155.661 40.7407Z" fill="white"/>
<path d="M173.68 40.7407C170.972 41.9689 168.364 43.4066 165.88 45.0407V64.0607H158.5V34.5707H164.73L165.21 37.8407C167.611 36.2132 170.217 34.9119 172.96 33.9707L173.68 40.7407Z" fill="white"/>
<path d="M198.361 64.0607H192.311L191.771 62.0607C189.159 63.7544 186.113 64.6573 183.001 64.6607C177.611 64.6607 175.311 60.9707 175.311 55.8907C175.311 49.8907 177.921 47.6007 183.901 47.6007H190.981V44.4907C190.981 41.2307 190.081 40.0807 185.361 40.0807C182.614 40.1094 179.877 40.4109 177.191 40.9807L176.281 35.3607C179.57 34.4496 182.967 33.9821 186.381 33.9707C195.641 33.9707 198.381 37.2307 198.381 44.6107L198.361 64.0607ZM190.981 52.9007H185.581C183.161 52.9007 182.491 53.5707 182.491 55.8107C182.491 57.8107 183.161 58.8107 185.491 58.8107C187.441 58.7795 189.352 58.2604 191.051 57.3007L190.981 52.9007Z" fill="white"/>
<path d="M221.05 27.8605C219.657 27.5546 218.236 27.3905 216.81 27.3705C213.91 27.3705 213.49 28.6405 213.49 30.8805V34.5705H220.99L220.58 40.4405H213.51V64.0605H206.13V40.4405H201.41V34.5705H206.13V30.4605C206.13 24.3505 208.97 21.3205 215.5 21.3205C217.646 21.3126 219.782 21.5986 221.85 22.1705L221.05 27.8605Z" fill="white"/>
<path d="M235.44 64.6407C225.34 64.6407 222.58 59.0607 222.58 53.0607V45.5807C222.58 39.5807 225.3 33.9707 235.4 33.9707C245.5 33.9707 248.23 39.5307 248.23 45.5807V53.0607C248.27 59.0607 245.58 64.6407 235.44 64.6407ZM235.44 40.2607C231.51 40.2607 230 42.0107 230 45.3407V53.2607C230 56.5907 231.51 58.3507 235.44 58.3507C239.37 58.3507 240.89 56.5907 240.89 53.2607V45.3407C240.89 42.0607 239.38 40.2607 235.44 40.2607Z" fill="white"/>
<path d="M267.26 40.7407C264.552 41.9689 261.944 43.4066 259.46 45.0407V64.0607H252.08V34.5707H258.31L258.79 37.8407C261.204 36.212 263.824 34.9107 266.58 33.9707L267.26 40.7407Z" fill="white"/>
<path d="M287.58 64.0607V43.4607C287.58 41.8907 286.91 41.1007 285.22 41.1007C283.53 41.1007 280.22 42.1907 277.54 43.5907V64.0607H270.15V34.5707H275.78L276.51 37.0507C280.184 35.2172 284.199 34.1683 288.3 33.9707C291.15 33.9707 292.9 35.1207 293.87 37.1107C297.555 35.2302 301.598 34.1596 305.73 33.9707C310.63 33.9707 312.38 37.4107 312.38 42.6807V64.0607H305V43.4607C305 41.8907 304.33 41.1007 302.64 41.1007C299.934 41.3835 297.318 42.2319 294.96 43.5907V64.0607H287.58Z" fill="white"/>
<path fill-rule="evenodd" clip-rule="evenodd" d="M21.1992 16.5508L40.2992 27.5808V49.6408L21.1992 38.6108V16.5508Z" fill="#7B42BC"/>
<path fill-rule="evenodd" clip-rule="evenodd" d="M42.3906 27.5808V49.6408L61.5006 38.6108V16.5508L42.3906 27.5808Z" fill="#7B42BC"/>
<path fill-rule="evenodd" clip-rule="evenodd" d="M0 4.24023V26.3002L19.1 37.3302V15.2702L0 4.24023Z" fill="#7B42BC"/>
<path fill-rule="evenodd" clip-rule="evenodd" d="M21.1992 63.0903L40.2992 74.1203V52.2003V52.0603L21.1992 41.0303V63.0903Z" fill="#7B42BC"/>
</svg>
