<svg width="963" height="255" viewBox="0 0 963 255" fill="none" xmlns="http://www.w3.org/2000/svg">
<path fill-rule="evenodd" clip-rule="evenodd" d="M767.084 122.663H833.313V178.565H813.542L812.392 162.123C802.502 172.811 786.854 180.045 764.612 180.045C726.06 180.045 702.501 160.972 702.501 126.445C702.501 91.9167 726.06 72.8438 769.062 72.8438C810.903 72.8438 831.668 89.1216 833.313 114.935H805.969C804.485 107.043 797.229 95.2047 768.901 95.2047C733.967 95.2047 729.189 114.442 729.189 126.938C729.189 139.599 734.134 159.328 768.901 159.328C794.928 159.328 805.302 147.983 805.969 140.091H767.084V122.663V122.663ZM525.887 178.731H552.58V74.4888H516.333L472.674 147.984L429.015 74.4888H392.77V178.731H419.624V107.208L463.118 178.731H482.394L525.887 107.208V178.731ZM603.161 156.534H665.6L676.968 178.731H706.623L652.581 74.4888H616.336L562.465 178.731H591.954L603.161 156.534V156.534ZM634.461 94.3834L655.715 136.64H613.041L634.461 94.3834ZM879.282 117.073V95.8635H962.807V74.4888H852.427V179.06H962.807V157.685H879.282V136.475H962.807V117.073H879.282V117.073Z" fill="#F1F1F1"/>
<path fill-rule="evenodd" clip-rule="evenodd" d="M130.937 2.25H206.445L206.445 95.8788L255.333 2.25H330.861V250.925H253.302V157.232L204.395 250.897L128.871 250.927L128.884 157.275L79.9847 250.925H1.0929L130.937 2.25ZM134.092 136.055L134.078 245.721L201.239 245.694L258.507 136.016V245.721H325.655V7.4541H258.487L201.239 117.094L201.24 7.4541H134.092L9.68212 245.721H76.8302L134.092 136.055V136.055Z" fill="black"/>
<path d="M201.24 7.45312H134.092L9.68201 245.72H76.8302L134.092 136.054V245.72H201.239V7.45453L201.24 7.45312V7.45312Z" fill="url(#paint0_linear_789_26)"/>
<path opacity="0.4" d="M258.487 7.45312H325.635L201.225 245.72H134.077L258.487 7.45312Z" fill="url(#paint1_linear_789_26)"/>
<path d="M258.507 7.45312H325.655V245.72H258.507V7.45312Z" fill="url(#paint2_linear_789_26)"/>
<defs>
<linearGradient id="paint0_linear_789_26" x1="-6.60498" y1="7.45307" x2="286.799" y2="36.3535" gradientUnits="userSpaceOnUse">
<stop stop-color="#FFCC19"/>
<stop offset="0.585938" stop-color="#2ECDF7"/>
<stop offset="1" stop-color="#9E7BFF"/>
</linearGradient>
<linearGradient id="paint1_linear_789_26" x1="124.203" y1="7.45307" x2="303.17" y2="18.1404" gradientUnits="userSpaceOnUse">
<stop stop-color="#FFCC19"/>
<stop offset="0.585938" stop-color="#2ECDF7"/>
<stop offset="1" stop-color="#9E7BFF"/>
</linearGradient>
<linearGradient id="paint2_linear_789_26" x1="-6.59917" y1="7.45302" x2="286.804" y2="36.3535" gradientUnits="userSpaceOnUse">
<stop stop-color="#FFCC19"/>
<stop offset="0.585938" stop-color="#2ECDF7"/>
<stop offset="1" stop-color="#9E7BFF"/>
</linearGradient>
</defs>
</svg>
