<svg width="5854" height="1996" viewBox="0 0 5854 1996" fill="none" xmlns="http://www.w3.org/2000/svg">
<path fill-rule="evenodd" clip-rule="evenodd" d="M4436.93 976.545H4795.03V1279.35H4688.13L4681.9 1190.29C4628.45 1248.18 4543.83 1287.36 4423.57 1287.36C4215.13 1287.36 4087.74 1184.05 4087.74 997.029C4087.74 810.005 4215.12 706.696 4447.62 706.696C4673.88 706.696 4786.12 794.865 4795.03 934.687H4647.16C4639.14 891.939 4599.95 827.817 4446.73 827.817C4257.88 827.817 4232.05 932.016 4232.05 999.701C4232.05 1068.28 4258.77 1175.15 4446.73 1175.15C4587.48 1175.15 4643.6 1113.7 4647.16 1070.95H4436.93V976.545ZM3550.6 1160.01H3888.21L3949.68 1280.24H4110.02L3817.84 715.602H3621.86L3330.58 1280.24H3490.03L3550.6 1160.01ZM3719.85 823.364L3834.76 1052.25H3604.05L3719.85 823.364ZM2406 715.998V1280H2551.22V868.618L2765.42 1280H2917.92L3132.12 868.618V1280H3277.34V715.998H3059.23L2841.67 1133.84L2624.11 715.998H2406ZM5043.56 946.265V831.379H5495.19V715.602H4898.36V1282.02H5495.19V1166.24H5043.56V1051.36H5495.19V946.265H5043.56Z" fill="#885EFF"/>
<path opacity="0.4" d="M1690 358L2048 358L1381 1638L1023 1638L1690 358Z" fill="url(#paint0_linear_521_211)"/>
<path d="M1381 358L1025 358L358 1638L716 1638L1023 1048.86V1638H1381V358.008L1381 358Z" fill="url(#paint1_linear_521_211)"/>
<path d="M1690 358H2048V1638H1690V358Z" fill="url(#paint2_linear_521_211)"/>
<defs>
<linearGradient id="paint0_linear_521_211" x1="1023" y1="998" x2="2048" y2="998" gradientUnits="userSpaceOnUse">
<stop offset="0.28125" stop-color="#7F51FF"/>
<stop offset="1" stop-color="#2AB2FE"/>
</linearGradient>
<linearGradient id="paint1_linear_521_211" x1="358" y1="998" x2="2048" y2="998" gradientUnits="userSpaceOnUse">
<stop offset="0.28125" stop-color="#7F51FF"/>
<stop offset="1" stop-color="#2AB2FE"/>
</linearGradient>
<linearGradient id="paint2_linear_521_211" x1="358" y1="998" x2="2048" y2="998" gradientUnits="userSpaceOnUse">
<stop offset="0.28125" stop-color="#7F51FF"/>
<stop offset="1" stop-color="#2AB2FE"/>
</linearGradient>
</defs>
</svg>
