<svg xmlns="http://www.w3.org/2000/svg" width="1000" height="560" viewBox="0 0 1000 560" role="img" aria-labelledby="title desc">
  <title id="title">When to use Spark</title>
  <desc id="desc">Decision aid: use Hive, Presto, or Athena when the batch job can be expressed as SQL.</desc>
  <defs>
    <filter id="shadow" x="-20%" y="-20%" width="140%" height="150%">
      <feDropShadow dx="0" dy="4" stdDeviation="5" flood-color="#0f172a" flood-opacity="0.08"/>
    </filter>
    <marker id="arrow-purple" viewBox="0 0 10 10" refX="9" refY="5" markerWidth="9" markerHeight="9" orient="auto"><path d="M0 0 10 5 0 10Z" fill="#7c3aed"/></marker>
    <marker id="arrow-blue" viewBox="0 0 10 10" refX="9" refY="5" markerWidth="9" markerHeight="9" orient="auto"><path d="M0 0 10 5 0 10Z" fill="#2563eb"/></marker>
    <marker id="arrow-amber" viewBox="0 0 10 10" refX="9" refY="5" markerWidth="9" markerHeight="9" orient="auto"><path d="M0 0 10 5 0 10Z" fill="#c2410c"/></marker>
    <marker id="arrow-green" viewBox="0 0 10 10" refX="9" refY="5" markerWidth="9" markerHeight="9" orient="auto"><path d="M0 0 10 5 0 10Z" fill="#15803d"/></marker>
    <marker id="arrow-red" viewBox="0 0 10 10" refX="9" refY="5" markerWidth="9" markerHeight="9" orient="auto"><path d="M0 0 10 5 0 10Z" fill="#dc2626"/></marker>
    <marker id="arrow-gray" viewBox="0 0 10 10" refX="9" refY="5" markerWidth="9" markerHeight="9" orient="auto"><path d="M0 0 10 5 0 10Z" fill="#64748b"/></marker>
    <symbol id="icon-database" viewBox="0 0 24 24">
        <ellipse cx="12" cy="5" rx="8" ry="3" fill="none" stroke="currentColor" stroke-width="2"/>
        <path d="M4 5v7c0 1.66 3.58 3 8 3s8-1.34 8-3V5M4 12v7c0 1.66 3.58 3 8 3s8-1.34 8-3v-7" fill="none" stroke="currentColor" stroke-width="2"/>
      </symbol>
    <symbol id="icon-document" viewBox="0 0 24 24">
        <path d="M6 2h8l4 4v16H6Z" fill="none" stroke="currentColor" stroke-width="2" stroke-linejoin="round"/><path d="M14 2v5h4M9 12h6M9 16h6" fill="none" stroke="currentColor" stroke-width="2" stroke-linecap="round"/>
      </symbol>
    <symbol id="icon-search" viewBox="0 0 24 24">
        <circle cx="11" cy="11" r="6.5" fill="none" stroke="currentColor" stroke-width="2"/>
        <path d="m16 16 4.5 4.5" fill="none" stroke="currentColor" stroke-width="2" stroke-linecap="round"/>
      </symbol>
    <symbol id="icon-settings" viewBox="0 0 24 24">
        <circle cx="12" cy="12" r="3" fill="none" stroke="currentColor" stroke-width="2"/><path d="M12 2v3M12 19v3M2 12h3M19 12h3M4.9 4.9 7 7M17 17l2.1 2.1M19.1 4.9 17 7M7 17l-2.1 2.1" fill="none" stroke="currentColor" stroke-width="2" stroke-linecap="round"/>
      </symbol>
    <style>
      text { font-family: system-ui, -apple-system, BlinkMacSystemFont, "Segoe UI", sans-serif; fill: #172033; }
      symbol [stroke] { vector-effect: non-scaling-stroke; }
      .node rect { stroke-width: 2; }
      .node-boundary rect { stroke-width: 2; stroke-dasharray: 8 8; }
      .boundary-title { font-size: 16px; font-weight: 750; text-anchor: start; }
      .node-title { font-weight: 750; text-anchor: middle; }
      .node-title.icon-copy { text-anchor: start; }
      .node-subtitle { font-weight: 500; fill: #475569; text-anchor: middle; }
      .eyebrow { font-weight: 750; letter-spacing: 1px; fill: #475569; text-anchor: middle; }
      .mention-icon { font-size: 27px; font-weight: 750; text-anchor: middle; }
      .standalone-mention { font-size: 52px; font-weight: 750; text-anchor: middle; }
      .icon-node-title { font-size: 16px; font-weight: 750; text-anchor: middle; }
      .edge { fill: none; stroke-width: 2.5; stroke-linecap: round; stroke-linejoin: round; }
      .edge-label rect { stroke-width: 2; }
      .edge-label text { font-size: 14px; font-weight: 750; text-anchor: middle; dominant-baseline: central; }
      .divider { stroke: #cbd5e1; stroke-width: 2; stroke-dasharray: 6 8; stroke-linecap: round; }
      .center-annotation { fill: #f1f5f9; stroke: none; }
      .center-title { font-weight: 800; letter-spacing: 0.08em; fill: #334155; text-anchor: middle; }
      .center-detail { font-weight: 600; fill: #475569; text-anchor: middle; }
    </style>
  </defs>
  <rect width="1000" height="560" fill="#ffffff"/>

  <path class="edge" d="M280 280H340V90H400" stroke="#64748b" marker-end="url(#arrow-gray)"/>
  <path class="edge" d="M280 280H340V470H400" stroke="#64748b" marker-end="url(#arrow-gray)"/>
  <g class="edge-label" transform="translate(340 375)">
    <rect x="-31" y="-16" width="62" height="32" rx="16.0" fill="#ffffff" stroke="#64748b"/>
    <text fill="#64748b">SQL</text>
  </g>
  <path class="edge" d="M640 90H700V280H760" stroke="#64748b" marker-end="url(#arrow-gray)"/>
  <path class="edge" d="M640 470H700V280H760" stroke="#64748b" marker-end="url(#arrow-gray)"/>

  <g class="node node-blue" transform="translate(40 230)" filter="url(#shadow)">
    <rect width="240" height="100" rx="18" fill="#eff6ff" stroke="#2563eb"/>
    <use href="#icon-document" x="16" y="20" width="34" height="34" color="#2563eb"/>
    <text class="node-title icon-copy" x="62" y="41.32" font-size="12">Batch job</text>
    <text class="node-subtitle" x="120" y="75" font-size="16">a transformation to run</text>
  </g>
  <g class="node node-amber" transform="translate(400 40)" filter="url(#shadow)">
    <rect width="240" height="100" rx="18" fill="#fff7ed" stroke="#c2410c"/>
    <use href="#icon-settings" x="16" y="20" width="34" height="34" color="#c2410c"/>
    <text class="node-title icon-copy" x="62" y="41.32" font-size="12">Spark</text>
    <text class="node-subtitle" x="120" y="75" font-size="16">general compute</text>
  </g>
  <g class="node node-purple" transform="translate(400 420)" filter="url(#shadow)">
    <rect width="240" height="100" rx="18" fill="#f5f3ff" stroke="#7c3aed"/>
    <use href="#icon-search" x="16" y="20" width="34" height="34" color="#7c3aed"/>
    <text class="node-title icon-copy" x="62" y="41.32" font-size="12">Hive · Presto · Athena</text>
    <text class="node-subtitle" x="120" y="75" font-size="16">if you can say it in SQL</text>
  </g>
  <g class="node node-green" transform="translate(760 230)" filter="url(#shadow)">
    <rect width="240" height="100" rx="18" fill="#ecfdf5" stroke="#15803d"/>
    <use href="#icon-database" x="16" y="20" width="34" height="34" color="#15803d"/>
    <text class="node-title icon-copy" x="62" y="41.32" font-size="12">Data lake</text>
    <text class="node-subtitle" x="120" y="75" font-size="16">results written back</text>
  </g>
</svg>
